<?xml version="1.0" standalone="no"?>
<!DOCTYPE svg PUBLIC "-//W3C//DTD SVG 20010904//EN"
 "http://www.w3.org/TR/2001/REC-SVG-20010904/DTD/svg10.dtd">
<svg version="1.0" xmlns="http://www.w3.org/2000/svg"
 width="960.000000pt" height="960.000000pt" viewBox="0 0 960.000000 960.000000"
 preserveAspectRatio="xMidYMid meet">
<metadata>
Created by potrace 1.10, written by Peter Selinger 2001-2011
</metadata>
<g transform="translate(0.000000,960.000000) scale(0.100000,-0.100000)"
fill="#000000" stroke="none">
<path d="M5185 8850 c-3 -5 -19 -10 -36 -10 -20 0 -41 -12 -69 -39 -22 -21
-40 -43 -40 -48 0 -6 -7 -24 -15 -40 -9 -19 -16 -60 -16 -107 -1 -42 -5 -76
-10 -76 -5 0 -9 -9 -9 -19 0 -15 -9 -21 -37 -25 -51 -8 -371 -2 -380 7 -10 11
-15 43 -17 127 -3 109 -2 107 -47 155 -92 100 -252 89 -320 -22 -21 -33 -24
-51 -25 -148 -2 -116 -13 -165 -39 -165 -8 0 -39 -13 -68 -30 -40 -22 -66 -30
-104 -30 -29 0 -72 -9 -98 -20 -26 -11 -62 -20 -81 -20 -19 0 -67 -11 -106
-25 -39 -14 -79 -25 -88 -25 -10 0 -39 -8 -66 -19 -27 -10 -75 -28 -106 -40
-32 -11 -82 -30 -110 -40 -29 -11 -66 -23 -82 -26 -16 -3 -41 -19 -57 -36 -15
-16 -37 -29 -49 -29 -12 0 -33 -9 -47 -20 -14 -11 -34 -20 -44 -20 -10 0 -21
-5 -25 -11 -3 -6 -25 -19 -48 -30 -22 -10 -48 -23 -56 -29 -8 -5 -54 -28 -102
-50 -49 -22 -88 -44 -88 -49 0 -5 -15 -18 -32 -30 -77 -49 -146 -97 -162 -113
-10 -10 -23 -18 -29 -18 -7 0 -35 -23 -62 -51 -27 -28 -61 -53 -77 -56 -18 -4
-34 -16 -44 -34 -9 -18 -20 -26 -29 -23 -9 4 -21 -5 -32 -24 -10 -16 -41 -48
-68 -70 -28 -21 -65 -58 -84 -81 -19 -22 -40 -41 -46 -41 -12 0 -40 -27 -168
-163 -51 -54 -94 -104 -96 -110 -2 -7 -28 -41 -58 -77 -29 -35 -53 -70 -53
-77 0 -7 -11 -20 -25 -29 -14 -9 -28 -28 -32 -43 -3 -14 -23 -45 -45 -68 -21
-24 -48 -63 -60 -88 -12 -25 -25 -45 -29 -45 -4 0 -28 -38 -53 -85 -26 -46
-51 -87 -56 -90 -6 -3 -10 -13 -10 -22 0 -8 -14 -31 -30 -50 -16 -18 -30 -40
-30 -48 0 -7 -6 -26 -14 -42 -63 -125 -86 -179 -92 -211 -3 -20 -23 -71 -44
-112 -21 -41 -47 -111 -59 -155 -12 -44 -31 -95 -42 -113 -10 -18 -19 -50 -19
-71 0 -21 -7 -55 -15 -74 -8 -20 -15 -51 -15 -69 0 -17 -9 -50 -19 -72 -11
-23 -21 -57 -24 -76 -2 -19 -12 -71 -20 -115 -37 -186 -42 -276 -41 -665 1
-403 5 -444 65 -765 5 -27 13 -72 17 -98 5 -26 14 -53 20 -59 7 -7 12 -29 12
-49 0 -21 5 -41 10 -44 6 -3 10 -16 10 -28 0 -13 7 -33 16 -46 9 -13 18 -43
20 -66 1 -24 8 -54 15 -67 17 -30 32 -70 74 -193 46 -136 84 -228 99 -240 7
-5 29 -48 50 -94 20 -47 40 -87 44 -90 10 -7 47 -85 57 -118 3 -12 16 -30 29
-40 12 -10 25 -26 29 -35 3 -10 11 -18 17 -18 5 0 10 -8 10 -19 0 -10 14 -35
30 -56 17 -21 30 -42 30 -47 0 -4 20 -36 45 -70 25 -34 45 -67 45 -74 0 -6 7
-14 15 -18 9 -3 19 -14 23 -24 9 -24 59 -87 94 -121 16 -14 28 -31 28 -38 0
-7 14 -19 30 -28 21 -11 30 -23 30 -39 0 -18 8 -27 30 -35 17 -5 30 -15 30
-22 0 -12 104 -119 116 -119 4 0 26 -19 50 -42 24 -24 60 -59 81 -78 21 -19
70 -64 109 -100 93 -86 165 -146 218 -184 25 -17 64 -46 87 -64 27 -21 49 -30
61 -26 13 4 18 0 18 -15 0 -13 9 -21 29 -26 16 -3 36 -14 46 -25 9 -10 49 -34
89 -54 40 -19 78 -42 85 -50 7 -8 25 -18 41 -21 16 -4 46 -20 66 -36 20 -16
55 -34 78 -40 23 -6 48 -15 56 -20 17 -10 53 -27 127 -59 29 -13 54 -29 57
-36 3 -8 14 -14 25 -14 11 0 51 -12 88 -26 37 -14 86 -30 108 -36 22 -6 47
-17 56 -24 24 -22 211 -65 226 -53 8 7 20 4 41 -11 16 -12 53 -25 83 -29 30
-4 71 -15 93 -24 21 -10 46 -17 55 -17 22 0 65 -45 56 -59 -3 -6 1 -38 9 -72
19 -71 20 -101 6 -115 -7 -7 -2 -26 16 -60 32 -57 70 -93 101 -94 12 0 24 -4
27 -9 8 -12 80 -3 133 16 32 12 50 28 73 63 27 42 31 57 34 139 3 51 9 98 15
105 19 23 84 35 210 39 137 5 196 -5 216 -37 8 -12 16 -57 18 -106 3 -72 8
-92 30 -125 48 -72 87 -95 164 -98 67 -2 69 -1 123 42 70 55 75 64 76 136 1
73 18 175 33 204 7 12 22 21 35 21 13 0 28 6 34 13 6 7 49 19 94 26 46 8 91
18 101 23 32 17 126 38 141 32 8 -3 25 1 38 10 12 9 32 16 43 16 11 0 34 9 50
20 17 11 40 20 51 20 26 0 134 34 189 59 22 10 75 31 118 46 43 15 82 36 87
45 5 9 34 25 65 34 30 10 55 22 55 26 0 5 15 13 34 20 18 6 51 24 72 40 22 16
47 30 57 30 23 0 54 16 90 46 16 13 35 24 44 24 8 0 43 22 77 48 33 27 86 63
116 82 30 18 59 38 65 44 5 7 30 25 55 41 25 17 68 52 96 80 29 27 71 64 93
80 23 17 47 36 54 43 27 29 44 45 95 84 35 27 51 46 47 56 -4 10 0 13 15 9 14
-4 25 3 39 26 11 18 45 54 76 81 34 31 58 62 63 80 4 17 18 35 29 41 12 5 28
20 35 33 7 13 23 28 35 33 15 5 21 14 17 24 -6 16 41 95 57 95 8 0 39 41 103
138 20 28 40 52 46 52 5 0 10 5 10 11 0 6 17 37 39 69 21 32 60 102 87 156 26
55 58 113 70 129 12 17 26 44 30 60 4 17 18 49 31 72 12 23 23 49 23 57 0 8 6
21 13 28 15 15 77 172 77 194 0 8 11 36 25 62 13 26 31 76 40 112 8 36 24 92
34 125 17 56 32 106 52 180 20 76 33 153 30 186 -1 22 6 53 18 78 12 22 21 53
21 69 0 16 8 75 17 133 25 153 25 691 0 918 -10 90 -23 173 -30 185 -6 12 -12
48 -13 81 -1 35 -11 80 -23 108 -12 27 -21 61 -21 75 0 15 -7 40 -15 56 -8 15
-15 49 -15 75 -1 25 -10 71 -21 101 -11 30 -26 74 -33 97 -6 23 -15 45 -19 49
-4 4 -7 18 -7 32 0 13 -13 40 -30 59 -16 18 -30 42 -30 53 0 11 -8 39 -19 62
-10 24 -24 61 -31 83 -7 22 -25 68 -41 101 -16 34 -29 69 -29 79 0 9 -20 44
-44 78 -24 34 -53 81 -65 105 -12 23 -28 42 -35 42 -16 0 -26 21 -26 56 0 14
-7 27 -15 30 -8 4 -15 14 -15 25 0 10 -9 23 -20 29 -11 6 -20 17 -20 25 0 8
-15 32 -34 52 -18 21 -36 47 -40 58 -3 11 -19 35 -36 53 -16 18 -30 37 -30 41
0 4 -9 16 -21 27 -11 10 -32 40 -47 66 -16 29 -36 51 -49 54 -16 4 -23 14 -23
29 0 14 -13 33 -35 49 -19 15 -35 34 -35 42 0 7 -9 14 -20 14 -12 0 -20 7 -20
16 0 9 -18 33 -39 54 -22 21 -45 48 -51 59 -6 12 -18 21 -26 21 -9 0 -37 21
-64 48 -81 80 -124 118 -147 131 -13 6 -23 18 -23 26 0 8 -13 21 -29 30 -74
38 -171 114 -171 134 0 6 -12 14 -27 17 -15 4 -36 18 -46 30 -10 13 -36 29
-59 36 -22 6 -47 22 -55 35 -8 13 -21 23 -28 23 -7 0 -18 7 -26 16 -15 18
-102 64 -121 64 -16 0 -78 55 -78 69 0 5 -13 12 -29 16 -16 3 -35 13 -42 21
-6 8 -29 14 -50 14 -24 0 -42 6 -51 18 -22 29 -191 109 -272 127 -10 2 -23 9
-30 14 -6 5 -29 12 -51 16 -22 4 -50 16 -61 27 -14 13 -38 20 -68 21 -26 1
-48 7 -51 15 -2 6 -19 12 -37 12 -19 0 -42 6 -53 14 -11 7 -51 19 -90 26 -38
7 -85 19 -103 26 -18 7 -45 11 -61 8 -19 -4 -44 2 -79 20 -28 14 -58 23 -67
20 -11 -5 -21 6 -36 41 -11 25 -18 53 -15 60 2 7 -2 19 -10 25 -19 16 -18 49
2 71 49 54 -98 228 -193 229 -17 0 -35 -4 -38 -10z m-829 -90 c25 0 55 5 66
11 39 21 43 0 43 -209 0 -191 1 -197 20 -194 11 1 58 7 105 13 100 12 417 4
474 -12 30 -8 41 -8 47 2 4 7 5 92 2 189 -7 201 -1 226 44 209 15 -6 55 -9 90
-7 34 1 67 -2 72 -7 6 -6 6 -82 1 -200 -5 -126 -4 -194 2 -202 6 -7 24 -13 41
-13 34 0 151 -22 272 -50 44 -10 123 -28 175 -40 52 -12 118 -30 145 -40 28
-10 101 -37 164 -60 63 -23 142 -54 175 -70 34 -16 91 -42 127 -58 37 -16 114
-57 173 -91 58 -33 109 -61 113 -61 5 0 40 -22 79 -48 38 -26 103 -69 143 -96
40 -26 96 -67 125 -90 67 -54 121 -96 158 -123 16 -12 60 -50 96 -85 37 -35
98 -93 137 -129 75 -68 258 -267 309 -335 17 -23 58 -77 91 -120 166 -219 332
-510 439 -764 26 -63 54 -127 62 -142 8 -14 14 -35 14 -45 0 -10 4 -23 8 -29
5 -5 19 -43 32 -84 12 -41 28 -93 35 -115 29 -90 63 -222 74 -285 5 -25 13
-65 19 -90 57 -240 90 -828 58 -1046 -9 -60 -16 -132 -16 -159 0 -28 -7 -75
-15 -105 -8 -30 -15 -70 -15 -88 0 -62 -67 -328 -121 -478 -16 -45 -29 -85
-29 -91 0 -12 -98 -258 -131 -328 -90 -194 -127 -262 -256 -472 -35 -58 -154
-222 -266 -367 -42 -55 -244 -274 -282 -306 -16 -14 -70 -61 -120 -106 -232
-205 -444 -362 -625 -461 -19 -11 -84 -47 -145 -81 -128 -71 -344 -167 -465
-207 -47 -15 -108 -39 -137 -52 -28 -12 -61 -23 -72 -23 -11 0 -32 -5 -48 -11
-71 -27 -303 -80 -403 -92 -61 -8 -115 -18 -120 -23 -5 -5 -5 -89 -1 -194 4
-102 4 -192 0 -201 -12 -24 -33 -29 -73 -18 -24 7 -49 6 -77 -1 -33 -9 -44 -9
-51 2 -5 7 -7 89 -4 193 3 99 1 186 -3 194 -7 10 -22 11 -82 1 -66 -10 -434
-9 -534 2 l-30 3 0 -202 c0 -111 -3 -205 -7 -208 -3 -4 -16 -1 -28 5 -14 7
-52 11 -99 8 l-76 -3 -1 202 c-1 111 -4 209 -8 219 -4 9 -14 14 -24 12 -68
-17 -429 70 -742 180 -102 36 -381 157 -420 182 -8 5 -64 37 -125 70 -121 66
-343 207 -419 267 -45 35 -117 96 -192 161 -17 15 -47 41 -67 57 -20 17 -80
72 -134 123 -54 52 -114 108 -133 126 -19 18 -60 61 -90 97 -30 35 -60 68 -67
72 -7 4 -13 13 -13 20 0 7 -12 26 -28 42 -41 46 -113 142 -164 220 -86 133
-135 210 -142 225 -3 8 -25 47 -46 85 -98 170 -208 422 -261 595 -11 36 -27
79 -35 97 -8 17 -14 39 -14 49 0 10 -6 36 -14 59 -8 22 -21 67 -29 100 -8 33
-20 80 -27 105 -6 25 -15 70 -20 100 -4 30 -13 84 -19 120 -34 206 -41 312
-40 630 0 179 5 350 10 380 4 30 13 93 18 140 5 47 14 98 20 113 6 16 11 43
11 62 0 18 6 55 14 81 8 27 19 72 26 99 23 103 56 221 69 250 5 11 17 45 25
75 9 30 23 71 30 90 8 19 24 60 36 90 56 145 171 384 224 468 14 23 26 44 26
48 0 3 14 26 30 51 17 24 30 46 30 49 0 7 130 194 194 279 65 87 69 91 106
133 14 15 69 77 122 138 100 112 308 313 388 374 41 32 127 100 206 165 18 14
34 25 37 25 3 0 69 43 146 95 78 52 146 95 151 95 6 0 50 25 99 55 49 30 92
55 95 55 4 0 66 27 139 59 73 33 159 69 192 81 33 12 74 28 90 34 86 35 252
81 410 115 55 12 121 26 146 32 25 5 74 11 108 13 34 2 64 6 68 9 3 4 5 99 4
212 -1 113 1 209 4 215 4 6 15 6 31 0 14 -6 46 -10 70 -10z"/>
<path d="M4464 8165 c-4 -9 -5 -92 -2 -185 3 -93 2 -173 -1 -178 -3 -5 -33
-12 -66 -15 -61 -5 -144 -18 -250 -38 -71 -14 -341 -85 -355 -94 -6 -4 -43
-15 -82 -26 -108 -30 -377 -150 -483 -216 -22 -13 -65 -39 -95 -57 -113 -67
-225 -138 -255 -162 -16 -14 -59 -47 -95 -74 -36 -28 -76 -60 -90 -73 -14 -13
-53 -47 -87 -77 -73 -62 -78 -82 -34 -138 16 -20 40 -61 52 -89 13 -29 27 -53
33 -53 5 0 39 31 75 69 127 132 361 313 506 390 32 18 66 38 75 45 8 8 65 39
125 69 249 124 465 198 755 261 352 75 764 81 1110 15 109 -20 136 -26 175
-37 22 -7 86 -23 143 -37 148 -35 270 -83 497 -195 188 -92 356 -195 485 -296
30 -24 71 -56 90 -71 19 -16 76 -70 127 -121 55 -55 97 -91 104 -87 6 4 18 23
26 43 8 19 32 59 54 88 21 29 39 60 39 68 0 24 -11 46 -24 46 -6 0 -54 37
-107 83 -150 129 -214 177 -323 246 -115 72 -283 171 -291 171 -3 0 -23 11
-45 25 -67 42 -277 131 -415 175 -71 22 -140 45 -153 51 -13 5 -32 9 -44 9
-11 0 -57 11 -102 24 -44 13 -117 29 -161 36 -44 6 -99 16 -122 21 -23 5 -62
9 -87 9 -37 0 -46 4 -52 22 -3 12 -5 98 -3 192 l4 171 -30 -3 c-58 -5 -530 -2
-572 4 -35 5 -44 3 -49 -11z m521 -135 c35 -33 36 -37 30 -85 -5 -41 -1 -61
19 -107 14 -31 29 -58 33 -59 17 -7 53 -67 53 -87 0 -20 -5 -21 -247 -20 -137
1 -318 -3 -403 -8 -117 -8 -161 -7 -178 2 -25 13 -13 30 14 20 9 -3 24 -1 34
4 14 8 26 7 40 -2 19 -11 24 -10 43 12 12 14 35 32 50 40 45 23 77 98 81 194
2 44 7 88 11 97 13 33 47 38 217 36 l167 -2 36 -35z m-955 -425 c0 -8 -9 -15
-20 -15 -11 0 -20 7 -20 15 0 8 9 15 20 15 11 0 20 -7 20 -15z m1556 4 c11
-18 -13 -34 -31 -19 -8 7 -15 16 -15 21 0 13 38 11 46 -2z m198 -64 c3 -9 0
-15 -9 -15 -8 0 -15 7 -15 15 0 8 4 15 9 15 5 0 11 -7 15 -15z m-2094 -44 c0
-12 -29 -23 -41 -15 -5 3 -7 10 -4 15 8 12 45 12 45 0z m-81 -35 c15 -18 -5
-34 -21 -18 -7 7 -16 7 -29 -1 -23 -14 -36 -2 -19 18 16 19 54 20 69 1z m2402
-6 c26 -15 24 -30 -5 -30 -27 0 -41 14 -31 30 8 13 12 12 36 0z m467 -258 c3
-9 -2 -13 -14 -10 -9 1 -19 9 -22 16 -3 9 2 13 14 10 9 -1 19 -9 22 -16z
m-3622 -189 c-11 -11 -19 6 -11 24 8 17 8 17 12 0 3 -10 2 -21 -1 -24z"/>
<path d="M4180 8128 c-25 -11 -76 -24 -115 -30 -38 -5 -108 -20 -155 -34 -47
-14 -110 -32 -140 -41 -77 -22 -97 -28 -160 -53 -30 -12 -71 -26 -92 -31 -68
-16 -383 -159 -428 -193 -8 -7 -40 -24 -70 -39 -84 -42 -299 -182 -419 -273
-205 -155 -497 -439 -631 -614 -19 -25 -38 -47 -42 -50 -18 -14 -151 -212
-228 -340 -97 -161 -178 -318 -235 -455 -20 -49 -43 -103 -50 -120 -20 -47
-93 -265 -105 -315 -6 -25 -17 -70 -24 -101 -7 -31 -16 -61 -19 -66 -4 -6 -11
-39 -16 -74 -6 -35 -19 -116 -30 -179 -33 -192 -44 -445 -32 -715 6 -131 15
-256 20 -279 5 -22 12 -70 16 -106 3 -36 11 -78 16 -95 5 -16 13 -57 18 -90
31 -201 151 -560 271 -811 33 -68 60 -126 60 -128 0 -8 122 -211 146 -243 13
-17 24 -35 24 -38 0 -14 150 -220 256 -354 83 -103 397 -405 514 -492 52 -40
99 -78 103 -85 4 -8 14 -14 22 -14 7 0 20 -6 27 -12 25 -24 227 -159 284 -190
23 -13 89 -49 147 -81 57 -31 120 -62 138 -68 19 -7 41 -17 49 -24 8 -6 71
-33 140 -59 203 -77 243 -91 317 -111 29 -8 79 -24 112 -35 32 -11 112 -30
178 -43 65 -13 135 -32 156 -42 33 -15 40 -16 48 -4 12 19 11 121 0 152 -9 23
-14 25 -50 20 -40 -6 -208 26 -286 53 -23 8 -47 14 -56 14 -25 0 -278 85 -369
125 -212 91 -449 217 -583 309 -48 34 -105 72 -126 86 -173 114 -411 326 -571
509 -36 41 -76 87 -90 102 -130 141 -323 443 -441 689 -22 47 -44 93 -49 102
-5 9 -26 59 -45 110 -20 51 -41 104 -46 118 -23 53 -62 180 -89 287 -16 62
-31 117 -34 122 -3 5 -10 37 -15 72 -6 35 -15 96 -21 134 -6 39 -17 115 -26
170 -12 79 -14 171 -12 435 4 384 14 473 84 760 15 58 30 121 35 140 26 109
73 238 159 439 58 135 74 167 145 296 146 264 339 517 589 773 87 89 182 178
210 197 28 19 74 55 101 80 28 25 109 84 180 132 72 47 143 95 159 106 27 19
182 100 316 167 60 30 148 65 340 135 69 25 134 50 145 55 11 5 45 14 75 19
30 6 109 22 175 36 66 14 134 25 152 25 21 0 36 6 41 18 11 19 15 118 6 145
-7 21 -18 21 -74 -5z"/>
<path d="M5323 8143 c-9 -3 -13 -27 -13 -72 0 -38 5 -74 13 -83 6 -9 32 -18
57 -21 65 -7 163 -25 255 -48 44 -11 91 -22 105 -24 14 -2 120 -40 235 -83
249 -94 497 -215 653 -321 63 -42 124 -83 136 -91 67 -44 87 -59 153 -115 40
-33 97 -80 128 -105 150 -120 454 -457 577 -640 10 -14 30 -43 46 -65 98 -140
286 -504 332 -645 5 -14 18 -50 30 -80 43 -113 82 -241 105 -350 9 -41 23 -96
31 -121 8 -26 14 -62 14 -80 0 -19 5 -50 11 -69 5 -19 14 -80 20 -135 5 -55
13 -143 19 -195 15 -145 12 -441 -5 -545 -8 -49 -15 -110 -15 -135 0 -25 -5
-61 -11 -80 -6 -19 -14 -60 -19 -90 -12 -82 -30 -171 -42 -205 -6 -16 -14 -48
-18 -70 -4 -22 -18 -69 -30 -105 -13 -36 -26 -78 -30 -95 -10 -38 -42 -120
-68 -176 -11 -24 -37 -84 -59 -134 -49 -113 -165 -337 -209 -402 -10 -15 -23
-36 -29 -45 -46 -76 -224 -320 -246 -338 -3 -3 -20 -25 -37 -49 -55 -75 -193
-219 -297 -309 -55 -47 -111 -96 -124 -110 -62 -64 -519 -372 -551 -372 -4 0
-39 -18 -76 -40 -38 -22 -72 -40 -76 -40 -5 0 -56 -23 -116 -51 -128 -62 -285
-118 -442 -160 -63 -17 -147 -39 -185 -49 -39 -10 -101 -21 -139 -22 -85 -5
-96 -17 -96 -104 0 -81 12 -91 73 -65 26 11 90 27 143 36 53 10 115 24 138 32
23 8 57 19 76 23 160 36 545 186 700 273 19 11 73 41 120 67 319 177 683 468
890 710 30 35 64 74 76 85 71 70 305 406 399 575 66 116 165 315 165 329 0 5
6 22 14 38 23 44 73 172 92 233 9 30 21 64 25 75 8 18 15 46 39 145 4 19 19
78 33 130 14 52 28 118 32 145 4 28 11 65 17 84 13 41 24 150 40 381 20 301
-15 715 -87 1015 -9 39 -20 86 -25 105 -24 106 -74 260 -126 387 -19 45 -34
85 -34 90 0 13 -160 330 -214 423 -80 137 -208 326 -280 415 -313 380 -614
639 -1021 878 -251 148 -485 250 -765 333 -47 14 -121 37 -165 50 -44 14 -116
31 -160 39 -72 13 -106 21 -155 38 -8 3 -21 3 -27 0z"/>
<path d="M4626 7360 c-208 -12 -394 -42 -586 -96 -52 -14 -124 -34 -160 -44
-36 -9 -85 -26 -110 -38 -25 -11 -76 -32 -115 -47 -95 -36 -346 -168 -359
-187 -11 -17 -15 -10 109 -183 35 -49 98 -139 139 -200 41 -60 115 -168 164
-240 48 -71 105 -154 126 -184 22 -30 80 -116 130 -190 49 -75 93 -138 96
-141 7 -7 75 -104 128 -185 25 -38 49 -72 52 -75 4 -4 64 -90 95 -138 66 -101
210 -310 226 -328 11 -11 19 -23 19 -27 0 -3 28 -46 62 -94 34 -48 77 -117 96
-153 18 -36 36 -67 38 -69 6 -7 44 31 44 44 0 11 79 132 193 298 26 37 47 69
47 72 0 3 20 31 44 62 23 32 70 99 103 148 58 88 118 176 231 340 31 44 85
123 120 175 36 52 80 116 99 142 18 26 33 51 33 54 0 3 20 32 45 65 24 32 55
75 69 96 14 21 41 61 60 88 69 96 96 136 96 141 0 3 19 31 42 62 23 31 76 107
117 167 41 61 88 128 106 150 65 81 68 116 12 134 -18 6 -57 26 -87 44 -57 34
-276 137 -292 137 -5 0 -28 9 -51 19 -83 38 -392 123 -516 142 -37 5 -93 14
-126 20 -128 20 -360 29 -539 19z m374 -96 c54 -4 81 -7 283 -38 92 -14 154
-29 257 -63 133 -43 177 -56 201 -57 14 0 39 -13 57 -27 17 -15 55 -32 84 -39
59 -15 123 -45 150 -72 10 -10 24 -18 31 -18 7 0 22 -12 34 -27 17 -24 18 -33
8 -62 -6 -18 -18 -38 -26 -45 -9 -6 -24 -32 -33 -57 -11 -27 -27 -51 -40 -57
-14 -6 -32 -32 -46 -69 -13 -32 -31 -63 -39 -69 -8 -7 -20 -27 -26 -45 -8 -23
-18 -34 -31 -34 -12 0 -20 -8 -22 -22 -2 -12 -10 -27 -18 -33 -8 -7 -14 -18
-14 -25 0 -7 -25 -43 -55 -81 -33 -41 -54 -77 -53 -89 2 -13 -2 -19 -12 -18
-10 2 -26 -20 -45 -62 -17 -36 -36 -64 -45 -65 -8 0 -26 -21 -39 -46 -14 -25
-35 -53 -48 -61 -13 -9 -23 -20 -23 -25 0 -6 -11 -23 -25 -40 -14 -16 -25 -36
-25 -45 0 -16 -25 -51 -77 -110 -18 -20 -35 -49 -38 -64 -4 -15 -15 -29 -26
-32 -11 -3 -19 -14 -19 -27 0 -16 -4 -20 -15 -16 -10 3 -20 -6 -31 -27 -10
-18 -28 -47 -42 -64 -14 -20 -22 -39 -18 -49 8 -20 -11 -45 -29 -38 -8 4 -17
-7 -25 -30 -6 -19 -20 -38 -30 -41 -10 -3 -21 -18 -25 -32 -3 -15 -16 -39 -28
-54 -12 -14 -31 -41 -42 -60 -11 -18 -25 -41 -31 -52 -6 -10 -23 -30 -37 -45
-28 -31 -57 -84 -57 -107 0 -8 -9 -15 -20 -15 -11 0 -20 -3 -20 -7 0 -5 -4
-14 -9 -22 -13 -20 -71 7 -71 33 0 16 -3 17 -12 8 -18 -18 -28 -15 -28 8 0 30
-27 78 -50 90 -10 6 -28 29 -40 53 -29 60 -44 85 -68 110 -11 12 -32 46 -46
75 -15 28 -30 52 -35 52 -9 0 -40 45 -70 99 -8 14 -25 39 -38 54 -12 16 -23
35 -23 42 0 8 -18 28 -39 46 -22 17 -37 37 -35 44 3 6 -6 19 -20 28 -13 9 -28
27 -32 39 -4 13 -20 39 -35 58 -16 19 -29 41 -29 48 0 17 -33 67 -71 107 -54
56 -79 93 -79 114 0 11 -11 28 -25 37 -15 9 -25 26 -25 39 0 14 -7 25 -20 28
-11 3 -20 12 -20 22 0 9 -21 43 -47 75 -79 99 -92 117 -103 144 -5 14 -14 26
-20 26 -5 0 -10 6 -10 13 0 7 -16 28 -35 47 -20 19 -40 51 -46 72 -9 36 -37
75 -81 116 -10 9 -18 22 -18 28 0 7 -17 34 -38 61 -29 36 -40 61 -44 96 -4 34
-2 47 7 47 7 0 51 20 98 45 48 25 94 45 102 45 9 0 46 16 82 35 36 19 73 35
82 35 9 0 52 13 96 29 177 63 230 79 315 91 36 5 97 17 135 26 49 12 105 16
185 15 64 -1 127 3 140 8 23 10 56 9 290 -5z"/>
<path d="M2321 6688 c-28 -40 -93 -128 -144 -194 -157 -204 -313 -482 -413
-735 -19 -47 -34 -93 -34 -101 0 -8 -4 -18 -8 -23 -9 -10 -37 -95 -66 -200 -9
-33 -24 -82 -32 -109 -7 -26 -14 -63 -14 -80 0 -18 -3 -36 -7 -40 -8 -7 -13
-40 -44 -256 -16 -107 -15 -567 0 -710 27 -251 57 -401 123 -615 50 -166 56
-183 97 -277 12 -26 21 -50 21 -53 0 -10 160 -327 188 -373 73 -119 182 -277
250 -362 149 -186 392 -423 576 -560 26 -19 70 -53 99 -75 29 -22 63 -46 76
-53 13 -8 40 -23 60 -35 20 -11 51 -29 70 -38 18 -10 41 -25 50 -33 28 -25
310 -162 431 -209 181 -70 358 -126 485 -152 44 -9 95 -25 114 -36 53 -32 60
-18 57 122 -2 65 -6 122 -10 126 -3 4 -30 8 -58 10 -29 2 -84 10 -122 18 -86
17 -326 96 -381 125 -21 11 -46 20 -55 20 -9 0 -25 7 -36 15 -10 8 -24 15 -31
15 -16 0 -270 136 -382 204 -94 57 -121 77 -241 174 -36 29 -78 64 -95 77
-114 91 -274 250 -366 365 -125 156 -261 355 -328 482 -21 40 -49 93 -62 118
-14 25 -33 68 -43 95 -11 28 -29 73 -42 100 -25 55 -51 124 -63 170 -5 17 -13
41 -19 55 -5 14 -18 52 -27 85 -9 33 -21 74 -25 90 -5 17 -14 58 -19 92 -5 34
-15 71 -20 82 -6 11 -11 42 -11 70 0 27 -7 80 -16 118 -21 87 -24 667 -5 748
7 28 17 84 21 125 5 41 14 94 20 118 5 23 15 61 21 85 5 23 14 58 18 77 5 19
13 46 18 60 6 14 18 52 28 85 10 33 23 74 30 90 6 17 20 59 31 94 20 68 33 80
67 63 42 -20 75 -26 492 -92 105 -16 222 -34 260 -40 39 -7 89 -16 112 -21 23
-5 70 -9 105 -9 85 0 91 -6 85 -71 -21 -213 -29 -283 -38 -349 -6 -41 -15
-124 -19 -185 -11 -147 -28 -320 -41 -430 -6 -49 -15 -144 -20 -210 -4 -66
-10 -129 -14 -140 -3 -11 -10 -74 -15 -140 -14 -182 -39 -442 -50 -520 -5 -38
-9 -98 -10 -132 0 -34 -4 -84 -10 -110 -5 -26 -14 -104 -19 -173 -10 -135 -25
-288 -43 -443 l-11 -97 59 -54 c99 -89 248 -207 353 -280 56 -38 113 -82 128
-98 50 -52 63 -32 62 102 0 41 4 116 10 165 6 50 11 133 11 186 0 53 5 121 10
150 6 30 15 140 20 244 5 105 14 217 20 250 5 33 10 107 10 165 0 58 5 132 10
165 6 33 15 151 20 263 5 112 12 207 16 213 5 9 15 177 31 502 4 87 8 117 18
117 7 0 33 -28 58 -62 25 -35 211 -227 413 -427 203 -200 436 -429 517 -510
82 -80 157 -161 168 -178 12 -18 25 -33 31 -33 5 0 22 15 36 33 15 17 110 115
212 216 714 708 869 863 898 903 33 46 43 98 19 98 -7 0 -26 -13 -42 -30 -16
-16 -37 -30 -46 -30 -21 0 -76 -55 -90 -89 -7 -18 -12 -21 -23 -12 -11 9 -18
6 -35 -15 -12 -15 -21 -31 -21 -36 0 -4 -11 -13 -25 -18 -14 -5 -25 -16 -25
-25 0 -8 -5 -15 -11 -15 -13 0 -229 -216 -229 -229 0 -5 -24 -28 -52 -50 -54
-42 -166 -141 -196 -174 -9 -10 -37 -37 -61 -60 -24 -23 -56 -55 -70 -71 -29
-32 -101 -103 -126 -124 -8 -7 -12 -18 -9 -24 4 -7 2 -8 -4 -4 -6 4 -26 -7
-43 -24 -35 -33 -60 -38 -79 -15 -7 8 -20 15 -30 15 -28 0 -72 40 -67 61 3 12
-2 20 -15 25 -11 3 -52 40 -91 81 -40 41 -106 107 -147 146 -244 234 -355 343
-359 352 -4 9 -133 138 -162 161 -8 7 -35 35 -61 63 -26 28 -67 60 -90 70 -24
10 -54 30 -67 45 -28 30 -64 34 -83 8 -7 -9 -26 -23 -41 -30 -51 -22 -67 -84
-84 -322 -2 -30 -8 -102 -14 -160 -5 -58 -12 -153 -13 -212 -2 -58 -8 -135
-14 -170 -10 -54 -17 -161 -37 -503 -2 -38 -8 -146 -14 -240 -6 -93 -18 -279
-25 -413 -15 -263 -21 -285 -73 -295 -23 -4 -36 2 -68 32 -52 48 -115 96 -138
104 -11 4 -21 16 -24 27 -3 11 -14 20 -24 20 -10 0 -25 13 -34 29 -8 17 -24
36 -36 45 -12 8 -19 19 -15 24 3 5 8 66 10 134 2 69 9 158 15 199 6 41 20 164
31 274 11 110 24 227 29 260 5 34 4 62 -1 66 -5 3 -4 18 3 35 6 16 15 81 20
144 14 191 36 418 43 428 3 6 8 73 11 149 3 76 9 156 15 178 5 22 10 67 10
100 0 63 8 151 41 420 11 88 21 194 24 235 3 41 8 93 12 115 3 22 7 72 7 110
1 68 0 72 -39 118 -21 26 -45 47 -53 47 -8 0 -16 9 -19 20 -4 14 -14 20 -33
20 -15 0 -33 7 -40 15 -9 11 -16 13 -24 5 -14 -14 -49 -12 -82 5 -17 9 -52 15
-84 14 -31 -1 -65 3 -75 8 -11 6 -57 13 -101 17 -45 3 -95 11 -110 16 -45 15
-314 53 -366 51 -25 -1 -49 3 -53 9 -3 5 -33 10 -66 10 -57 0 -63 -2 -100 -40
-36 -36 -79 -53 -79 -31 0 20 32 82 44 87 8 3 17 17 21 32 13 55 103 237 127
259 10 9 18 22 18 28 0 7 6 18 14 24 7 6 16 24 19 40 3 16 22 45 42 66 19 21
35 44 35 53 0 8 15 31 33 52 17 20 39 47 47 60 8 12 21 28 28 34 7 6 22 19 33
29 31 28 55 21 88 -29 17 -25 31 -49 31 -54 0 -16 43 -94 64 -117 12 -12 29
-30 39 -41 9 -10 17 -26 17 -34 0 -22 62 -117 78 -117 6 -1 12 -12 12 -25 0
-24 23 -56 41 -56 5 0 9 -11 9 -25 0 -14 8 -29 20 -35 11 -6 20 -19 20 -29 0
-9 40 -60 90 -112 49 -52 90 -98 90 -102 0 -5 6 -5 13 0 6 4 34 8 60 9 35 1
53 7 68 22 11 12 28 22 39 22 51 0 130 112 135 190 2 19 8 64 14 99 7 36 9 88
5 117 -5 44 -3 55 13 71 28 28 83 20 83 -11 0 -13 12 -31 30 -44 17 -13 34
-39 41 -62 8 -27 17 -39 28 -38 11 2 17 -6 19 -30 2 -21 12 -38 28 -48 13 -9
24 -22 24 -28 0 -7 16 -27 35 -46 19 -19 35 -38 35 -42 0 -5 8 -21 18 -36 11
-15 30 -44 43 -64 13 -21 29 -38 36 -38 7 0 10 -6 7 -14 -3 -7 11 -34 30 -59
19 -25 42 -60 51 -77 9 -17 23 -34 31 -37 9 -3 36 -38 62 -77 25 -39 61 -88
79 -109 18 -20 33 -43 33 -51 0 -8 16 -38 35 -68 19 -29 38 -61 41 -71 3 -11
12 -16 20 -13 9 3 16 -4 21 -22 3 -15 12 -31 18 -37 7 -5 15 -22 19 -37 4 -17
18 -34 36 -43 17 -9 30 -23 30 -33 0 -23 73 -140 99 -158 12 -9 21 -21 21 -27
0 -7 16 -30 35 -51 19 -22 35 -45 35 -52 0 -6 8 -14 18 -16 13 -4 23 -21 31
-52 7 -28 17 -46 26 -46 8 0 24 -19 36 -42 12 -24 31 -54 44 -68 13 -14 26
-35 29 -46 4 -12 16 -24 26 -27 12 -3 20 -14 20 -25 0 -12 20 -38 48 -62 40
-36 55 -43 98 -45 47 -3 51 -2 47 16 -5 16 -1 18 25 13 28 -6 32 -3 51 34 11
22 29 42 41 45 11 3 20 13 20 25 0 11 7 25 15 32 8 7 15 17 15 22 0 5 9 22 21
36 33 44 67 95 85 130 9 19 28 40 40 49 13 8 24 23 24 32 0 10 11 28 25 41 31
29 116 153 151 221 15 27 30 52 35 55 12 7 89 123 89 134 0 4 15 26 33 49 69
87 77 100 77 120 0 12 15 35 33 51 18 16 46 55 62 87 16 32 47 79 69 104 70
80 116 146 151 217 19 38 44 77 55 87 11 10 20 22 20 27 0 6 19 33 43 61 24
29 55 78 70 110 15 32 33 57 42 57 8 0 15 6 15 14 0 8 16 31 35 52 20 20 38
47 41 58 8 33 60 31 72 -3 28 -81 31 -94 21 -118 -5 -13 -7 -29 -3 -34 3 -5 6
-27 6 -49 0 -22 4 -40 8 -40 5 0 13 -31 20 -69 14 -83 70 -181 104 -181 12 0
32 -7 44 -16 33 -23 169 -16 183 9 6 9 17 23 26 30 43 33 84 82 114 134 17 32
40 67 50 78 9 11 27 39 39 63 12 23 25 42 30 42 4 0 19 27 34 60 15 32 31 62
37 66 6 3 14 17 19 30 5 13 17 24 25 24 12 0 15 6 10 20 -9 28 3 44 21 29 15
-12 17 -9 28 43 4 16 21 48 38 73 30 42 34 45 65 39 33 -6 123 -81 123 -102 0
-6 11 -23 23 -39 13 -15 27 -41 31 -56 4 -16 19 -35 36 -45 17 -9 30 -24 30
-33 0 -9 7 -22 15 -29 8 -7 15 -19 15 -27 0 -9 8 -32 19 -52 10 -20 26 -53 35
-75 9 -21 29 -54 43 -73 25 -32 67 -121 80 -168 3 -11 16 -31 29 -45 16 -17
21 -32 17 -48 -3 -13 -1 -22 6 -22 6 0 11 -14 11 -31 0 -35 -23 -36 -28 -1 -4
25 -54 80 -92 100 -66 37 -110 36 -380 -10 -63 -11 -162 -26 -220 -33 -58 -8
-130 -21 -160 -29 -30 -8 -109 -20 -175 -27 -133 -14 -166 -29 -241 -111 l-39
-43 6 -115 c4 -63 12 -164 19 -225 6 -60 15 -153 21 -205 5 -52 14 -151 19
-220 12 -169 38 -436 52 -540 7 -47 13 -123 14 -170 2 -84 13 -214 33 -379 8
-59 8 -88 0 -97 -7 -9 -6 -19 4 -36 9 -14 17 -63 21 -128 7 -115 31 -352 46
-469 6 -41 7 -78 2 -83 -5 -5 -5 -32 -1 -61 4 -28 8 -80 8 -114 1 -57 -2 -66
-31 -99 -49 -55 -91 -98 -109 -109 -29 -18 -104 -74 -120 -90 -9 -8 -19 -15
-24 -15 -4 0 -13 -8 -20 -17 -18 -24 -60 -4 -69 34 -10 36 -22 203 -35 473 -6
118 -16 240 -22 270 -6 30 -12 114 -13 185 -1 72 -9 180 -16 240 -8 61 -15
144 -16 185 -4 117 -23 338 -34 399 -5 30 -10 92 -10 137 0 46 -7 109 -15 141
-8 31 -15 85 -15 119 0 58 -3 65 -35 100 -19 20 -37 35 -40 32 -12 -12 -12
-215 1 -323 8 -66 14 -165 15 -220 0 -55 4 -122 10 -150 5 -27 13 -140 19
-250 5 -110 14 -227 20 -260 5 -33 10 -103 10 -155 0 -52 7 -149 15 -215 8
-65 15 -161 15 -211 0 -51 6 -145 14 -211 13 -108 29 -392 27 -488 0 -22 6
-48 13 -58 14 -18 17 -16 69 25 30 24 103 77 162 118 127 88 334 262 353 296
10 18 10 38 3 82 -11 61 -26 214 -41 402 -5 63 -13 142 -19 175 -5 33 -13 107
-16 165 -3 58 -10 125 -15 150 -5 25 -9 77 -10 115 0 39 -7 106 -15 150 -8 44
-15 114 -15 155 -1 41 -6 98 -11 125 -5 28 -14 113 -19 190 -5 77 -14 156 -20
175 -5 19 -10 69 -10 110 -1 41 -7 111 -15 155 -8 44 -15 107 -15 140 0 33 -7
114 -15 180 -8 66 -19 167 -25 225 -5 58 -15 145 -20 194 -6 48 -9 95 -6 102
4 10 23 14 64 14 32 0 84 5 115 11 59 10 129 21 532 83 248 39 293 47 341 67
40 16 64 6 64 -25 0 -22 17 -75 49 -151 4 -11 16 -47 26 -80 9 -33 23 -78 31
-100 8 -23 14 -49 14 -59 0 -10 6 -39 14 -65 21 -65 36 -143 46 -236 5 -44 14
-98 19 -120 17 -66 14 -619 -4 -685 -8 -30 -15 -77 -15 -105 -1 -27 -7 -68
-15 -90 -8 -22 -15 -53 -15 -68 0 -16 -5 -38 -11 -49 -7 -12 -15 -47 -19 -77
-4 -31 -19 -87 -34 -126 -14 -38 -26 -79 -26 -91 0 -11 -5 -25 -11 -31 -6 -6
-14 -26 -19 -44 -15 -62 -161 -373 -215 -459 -14 -22 -25 -42 -25 -45 0 -8
-172 -260 -229 -335 -278 -368 -758 -732 -1191 -905 -63 -25 -124 -50 -135
-55 -38 -18 -240 -81 -308 -96 -38 -7 -90 -14 -116 -14 -73 0 -80 -12 -78
-150 2 -133 4 -134 90 -102 29 11 75 25 102 31 88 20 270 73 365 107 80 28
269 107 307 128 15 8 54 27 85 41 108 49 363 211 513 325 173 133 396 350 530
517 98 121 122 155 224 313 75 117 149 255 224 420 64 140 187 503 187 552 0
11 4 27 9 36 5 10 14 49 20 87 6 39 20 126 31 195 36 218 36 546 1 865 -25
225 -125 612 -201 780 -10 22 -37 83 -59 135 -60 136 -66 149 -165 315 -101
170 -119 196 -232 339 -45 57 -94 124 -109 150 -23 39 -30 44 -45 36 -10 -5
-30 -34 -44 -62 -14 -29 -52 -93 -85 -143 -33 -49 -74 -115 -91 -145 -16 -30
-49 -83 -73 -117 -23 -34 -55 -84 -71 -110 -16 -26 -50 -79 -75 -118 -25 -38
-62 -101 -82 -140 l-36 -70 -43 2 c-24 1 -48 7 -54 13 -5 5 -24 10 -41 10 -17
0 -40 6 -50 14 -20 15 -21 23 -35 246 -4 80 -13 165 -19 190 -6 25 -11 104
-11 175 0 72 -3 140 -6 153 -11 41 -39 25 -74 -40 -41 -79 -90 -157 -160 -256
-31 -42 -86 -122 -123 -177 -37 -55 -91 -134 -120 -175 -29 -41 -87 -124 -129
-185 -101 -147 -185 -270 -291 -423 -87 -126 -129 -188 -282 -412 -43 -63
-102 -146 -130 -185 -48 -66 -150 -215 -187 -273 -10 -15 -29 -50 -43 -79 -14
-29 -35 -55 -46 -58 -24 -8 -21 -11 -42 46 -10 25 -37 73 -62 107 -25 34 -45
64 -45 66 0 3 -37 58 -83 123 -45 65 -96 138 -112 163 -16 25 -32 47 -35 50
-4 3 -20 25 -36 50 -17 25 -46 68 -65 95 -69 99 -224 326 -234 343 -6 9 -27
40 -47 67 -36 50 -152 217 -273 395 -36 52 -96 140 -134 195 -149 215 -302
443 -343 515 -65 111 -72 104 -78 -70 -3 -80 -9 -150 -13 -156 -6 -10 -15
-113 -36 -385 -7 -100 -18 -119 -71 -119 -20 0 -51 -7 -68 -16 -18 -8 -40 -14
-50 -12 -9 2 -33 33 -52 69 -34 64 -88 153 -190 309 -27 41 -66 102 -86 135
-21 33 -68 109 -106 168 -38 59 -80 129 -93 155 -13 27 -33 56 -44 66 -19 17
-21 16 -70 -56z m5489 -1225 c0 -35 -3 -44 -10 -33 -13 20 -13 80 0 80 6 0 10
-21 10 -47z m10 -88 c0 -8 -4 -15 -10 -15 -5 0 -10 7 -10 15 0 8 5 15 10 15 6
0 10 -7 10 -15z m64 -291 c3 -9 6 -34 6 -57 -1 -39 -2 -41 -15 -23 -8 11 -15
37 -15 58 0 39 13 51 24 22z m36 -584 c0 -41 -16 -62 -26 -36 -9 22 5 88 17
81 5 -4 9 -24 9 -45z m5 -218 c-18 -47 -25 -105 -14 -118 6 -7 8 -18 4 -23 -3
-6 -8 -37 -11 -68 -3 -32 -7 -64 -9 -70 -7 -20 -25 -15 -25 6 0 11 -5 23 -11
26 -6 4 -7 19 -4 35 8 37 18 162 18 222 l0 47 29 -21 c19 -13 27 -26 23 -36z
m-6205 -187 c0 -8 -4 -15 -10 -15 -5 0 -10 7 -10 15 0 8 5 15 10 15 6 0 10 -7
10 -15z m8 -133 c2 -23 -1 -42 -6 -42 -13 0 -22 25 -22 62 0 46 24 29 28 -20z
m6132 -32 c0 -29 -4 -40 -15 -40 -11 0 -15 -11 -15 -40 0 -43 -13 -52 -29 -21
-7 13 -6 24 4 37 8 11 15 27 15 36 0 23 21 68 32 68 4 0 8 -18 8 -40z m-67
-242 c7 -25 -17 -88 -33 -88 -19 0 -22 28 -6 52 9 12 16 30 16 40 0 25 17 22
23 -4z m-5984 -36 c5 -10 6 -24 1 -32 -6 -10 -1 -21 16 -37 22 -20 34 -73 17
-73 -17 1 -68 106 -65 133 4 31 17 35 31 9z m108 -290 c4 -29 2 -42 -6 -42 -6
0 -14 8 -17 18 -3 9 -12 29 -20 44 -8 14 -14 37 -14 49 l0 24 26 -26 c16 -16
28 -42 31 -67z m5773 7 c0 -12 -7 -19 -20 -19 -14 0 -20 7 -20 23 0 13 3 27 7
30 10 11 33 -13 33 -34z m-23 -55 c3 -9 0 -20 -8 -25 -21 -13 -29 -11 -29 9 0
33 26 44 37 16z m-5672 -64 c8 -12 -3 -50 -15 -50 -10 0 -21 40 -14 52 7 11
22 10 29 -2z m25 -91 c0 -6 -8 -18 -17 -27 -16 -16 -16 -16 -10 1 4 10 7 23 7
28 0 5 5 9 10 9 6 0 10 -5 10 -11z m38 -68 c3 -16 -1 -22 -10 -19 -7 3 -15 15
-16 27 -3 16 1 22 10 19 7 -3 15 -15 16 -27z m5462 -41 c0 -20 -5 -30 -15 -30
-15 0 -21 40 -8 53 14 15 23 6 23 -23z m-5420 -29 c5 -11 10 -28 10 -39 0 -11
7 -22 15 -26 8 -3 15 -12 15 -21 0 -8 5 -15 10 -15 6 0 15 -11 20 -25 5 -14
18 -29 27 -33 24 -9 30 -82 7 -82 -8 0 -18 10 -23 23 -5 13 -16 29 -26 37 -11
9 -14 22 -10 38 5 19 -1 32 -21 53 -15 16 -33 29 -40 29 -14 0 -24 23 -24 56
0 29 25 32 40 5z m5228 -312 c-2 -6 -8 -10 -13 -10 -5 0 -11 4 -13 10 -2 6 4
11 13 11 9 0 15 -5 13 -11z m-5000 -42 c2 -24 8 -37 18 -37 8 0 14 -7 14 -15
0 -26 -24 -16 -47 18 -23 34 -29 58 -16 71 14 14 28 -2 31 -37z m4872 -92 c6
-8 8 -20 4 -26 -5 -9 -11 -7 -21 6 -23 33 -9 51 17 20z m-4790 -14 c12 -23 13
-61 3 -61 -12 1 -52 68 -45 74 11 12 32 5 42 -13z m4660 -151 c0 -5 -7 -10
-15 -10 -8 0 -15 5 -15 10 0 6 7 10 15 10 8 0 15 -4 15 -10z m-4440 -72 c0
-11 -48 -10 -55 2 -3 6 -4 14 0 20 7 11 55 -8 55 -22z m170 -163 c7 -9 11 -17
9 -19 -7 -7 -49 13 -49 24 0 15 26 12 40 -5z m66 -42 c4 -16 16 -34 26 -42 13
-9 16 -17 10 -23 -15 -15 -86 56 -79 77 10 25 36 17 43 -12z m94 -103 c0 -11
-4 -20 -10 -20 -5 0 -10 9 -10 20 0 11 5 20 10 20 6 0 10 -9 10 -20z m247
-147 c3 -7 -3 -9 -16 -6 -12 3 -21 10 -21 15 0 13 32 6 37 -9z m761 -330 c6
-19 -33 -16 -49 3 -11 14 -9 15 16 12 16 -1 30 -9 33 -15z"/>
<path d="M2945 6692 c-27 -31 -75 -80 -107 -107 -59 -51 -69 -75 -45 -104 41
-49 119 -195 142 -265 6 -19 6 -19 25 0 17 16 20 39 26 174 4 102 12 182 25
234 21 82 19 126 -5 126 -7 0 -35 -26 -61 -58z"/>
<path d="M6555 6740 c-7 -11 12 -166 22 -183 4 -7 10 -86 13 -177 6 -196 13
-205 75 -89 23 41 62 107 88 146 26 39 47 77 47 86 0 8 -24 33 -54 55 -30 23
-80 70 -112 107 -58 66 -68 73 -79 55z"/>
<path d="M7340 5489 c-36 -10 -110 -25 -165 -34 -55 -9 -122 -21 -150 -27 -27
-5 -113 -17 -190 -27 l-140 -17 2 -45 c3 -85 23 -291 29 -300 3 -5 9 -76 14
-157 5 -82 14 -168 19 -193 6 -24 11 -78 11 -119 0 -41 7 -111 15 -155 8 -44
15 -112 15 -152 0 -39 7 -107 15 -150 8 -43 15 -109 15 -148 1 -38 5 -101 11
-140 5 -38 14 -126 19 -195 5 -69 14 -149 20 -179 5 -29 10 -83 10 -120 0 -36
7 -104 15 -151 8 -48 15 -145 15 -223 0 -76 5 -147 10 -158 16 -29 38 -23 53
14 8 17 31 54 52 81 21 28 51 72 67 99 16 28 48 80 72 116 103 159 211 392
266 571 13 41 27 84 31 95 9 21 20 65 39 150 6 28 16 65 21 83 6 18 14 67 19
110 5 42 14 106 19 142 14 82 14 541 0 635 -5 39 -13 102 -18 140 -5 39 -13
81 -19 95 -5 14 -17 61 -27 105 -9 44 -23 98 -30 120 -7 22 -16 56 -19 75 -6
36 -31 81 -44 79 -4 -1 -36 -10 -72 -20z m40 -169 c8 -25 19 -51 24 -59 8 -13
28 -99 42 -181 3 -19 9 -44 14 -55 11 -26 27 -218 32 -390 4 -117 -12 -385
-26 -465 -36 -192 -46 -240 -64 -308 -11 -40 -27 -81 -35 -90 -8 -9 -17 -37
-21 -61 -4 -24 -15 -62 -26 -84 -11 -22 -20 -51 -20 -63 0 -14 -8 -25 -21 -29
-16 -5 -19 -12 -14 -35 4 -19 2 -31 -7 -37 -20 -12 -48 -60 -48 -82 0 -25 -36
-87 -55 -95 -8 -3 -15 -13 -15 -22 0 -22 -61 -103 -78 -104 -7 0 -15 -7 -18
-15 -4 -8 -9 -15 -13 -15 -14 0 -31 57 -31 101 0 26 -5 51 -11 55 -7 4 -9 24
-6 56 6 44 -17 280 -28 298 -10 17 -23 176 -15 190 5 9 5 34 0 56 -15 68 -40
302 -51 473 -6 102 -15 171 -23 185 -12 18 -30 218 -28 306 0 14 -4 30 -9 36
-5 6 -8 28 -7 50 0 21 -5 98 -12 170 -16 149 -10 172 53 198 61 26 334 65 442
62 l60 -1 15 -45z"/>
<path d="M2130 5475 c-5 -14 -10 -31 -10 -36 0 -6 -7 -34 -16 -62 -26 -89 -64
-251 -84 -362 -20 -115 -42 -410 -36 -485 4 -41 11 -136 16 -210 5 -74 14
-155 19 -180 6 -25 15 -72 20 -105 6 -33 15 -82 21 -110 10 -50 64 -233 80
-270 5 -11 11 -29 13 -40 8 -29 98 -248 107 -260 4 -5 31 -56 60 -113 29 -57
63 -116 76 -131 13 -16 24 -32 24 -36 0 -3 23 -41 52 -83 107 -158 119 -178
124 -199 4 -13 12 -23 20 -23 7 0 16 10 18 23 8 42 26 254 26 309 0 31 5 80
11 109 6 30 14 108 19 174 4 66 13 163 19 215 24 212 33 311 41 437 4 72 11
136 15 143 4 6 10 66 15 133 8 119 20 240 41 422 6 50 14 150 19 223 5 73 12
137 15 142 3 4 10 68 16 140 7 94 7 135 0 144 -7 8 -35 14 -69 15 -31 0 -79 5
-107 10 -27 5 -113 19 -190 31 -77 12 -174 28 -215 37 -137 29 -148 29 -160
-2z m250 -126 c36 -5 90 -14 121 -19 30 -6 65 -10 78 -10 25 0 109 -25 159
-47 33 -15 34 -15 28 -66 -3 -29 -7 -65 -9 -82 -1 -16 -6 -36 -10 -43 -5 -7
-6 -28 -3 -45 3 -18 1 -68 -5 -112 -6 -44 -13 -120 -15 -170 -2 -49 -8 -103
-14 -119 -5 -16 -10 -52 -10 -80 0 -28 -4 -67 -10 -86 -5 -19 -12 -71 -15
-115 -3 -44 -9 -125 -15 -180 -5 -55 -16 -185 -24 -290 -8 -104 -20 -221 -25
-260 -23 -158 -32 -268 -24 -276 10 -10 2 -74 -19 -159 -6 -25 -11 -58 -10
-74 l1 -30 -32 36 c-62 68 -107 131 -107 149 0 10 -13 34 -30 52 -16 19 -30
41 -30 48 0 20 -45 128 -59 142 -6 6 -11 23 -11 39 0 17 -7 31 -20 38 -12 7
-20 21 -20 38 0 15 -9 41 -20 57 -11 17 -20 43 -20 59 0 15 -11 65 -24 110
-37 129 -44 165 -66 330 -30 226 -28 596 3 767 9 46 21 118 27 159 17 116 32
172 53 204 22 31 74 58 97 50 8 -3 44 -10 80 -15z"/>
<path d="M3749 4138 c-1 -112 -18 -421 -28 -508 -5 -47 -10 -123 -11 -170 0
-47 -7 -139 -15 -205 -8 -66 -15 -160 -15 -210 0 -49 -5 -128 -11 -175 -6 -47
-14 -155 -19 -240 -5 -85 -13 -204 -19 -265 -5 -60 -11 -161 -13 -224 -2 -93
0 -115 12 -121 14 -8 73 -28 190 -67 25 -8 77 -27 115 -43 78 -31 266 -78 365
-91 36 -5 86 -12 113 -15 34 -5 47 -11 47 -23 1 -9 2 -193 3 -409 l2 -393 317
0 c175 0 322 2 327 6 7 4 8 143 5 401 -6 423 -6 430 42 418 13 -3 45 -1 71 5
26 6 77 15 113 21 36 6 94 19 130 29 36 10 88 24 115 30 28 7 68 20 90 30 22
10 69 28 105 40 36 13 91 32 123 44 l57 20 0 86 c0 47 -7 140 -15 206 -8 65
-15 160 -16 210 0 49 -4 122 -9 160 -5 39 -14 158 -20 265 -5 107 -15 219 -20
249 -6 30 -10 100 -10 155 -1 56 -5 135 -11 176 -8 67 -14 149 -35 525 -6 113
-11 145 -22 145 -5 0 -24 -21 -43 -47 -34 -49 -117 -133 -627 -637 -155 -154
-292 -294 -303 -313 -26 -42 -61 -45 -78 -5 -7 15 -203 215 -435 444 -233 229
-449 449 -481 488 -31 38 -64 70 -71 70 -10 0 -14 -16 -15 -62z m151 -252 c0
-8 10 -16 23 -19 12 -4 107 -92 211 -197 116 -117 196 -190 208 -190 11 0 16
-5 13 -10 -8 -13 21 -60 37 -60 7 0 46 -35 88 -78 41 -43 87 -86 102 -96 15
-10 30 -26 33 -37 4 -10 11 -19 16 -19 6 0 30 -15 53 -34 65 -54 113 -68 140
-41 8 8 25 20 38 25 36 16 80 51 122 98 21 23 44 42 50 42 15 0 71 59 79 83 4
9 18 22 32 29 13 6 27 20 31 30 3 11 17 23 30 28 13 5 24 15 24 22 0 7 15 23
32 35 41 29 334 319 342 338 7 20 63 47 89 43 18 -2 24 -13 34 -58 6 -30 12
-89 12 -130 1 -41 6 -120 12 -175 6 -55 12 -149 14 -209 2 -60 9 -141 14 -180
6 -39 13 -144 16 -234 2 -89 9 -191 14 -225 6 -34 12 -130 15 -213 3 -84 9
-161 14 -173 10 -27 -1 -113 -21 -166 -13 -34 -21 -41 -50 -46 -19 -3 -59 -17
-88 -31 -66 -30 -149 -58 -177 -58 -12 0 -24 -5 -27 -10 -3 -5 -17 -10 -30
-10 -14 0 -44 -4 -67 -10 -24 -5 -88 -19 -143 -31 -55 -12 -106 -27 -113 -33
-8 -5 -36 -39 -63 -75 l-49 -65 -2 -166 c0 -91 0 -172 1 -180 2 -16 0 -232 -2
-263 -1 -11 -18 -28 -42 -40 -35 -18 -58 -21 -195 -21 -102 0 -162 3 -176 11
-16 10 -23 26 -29 75 -8 70 -8 68 -1 222 8 173 -7 352 -35 409 -15 30 -29 47
-41 47 -11 0 -23 11 -28 25 -6 16 -17 25 -30 25 -12 0 -34 7 -49 15 -25 13
-30 13 -41 0 -14 -17 -34 -9 -26 10 6 17 -15 25 -62 25 -54 0 -202 33 -239 53
-18 9 -45 17 -61 17 -15 0 -43 11 -62 25 -21 16 -41 23 -53 19 -11 -3 -38 4
-63 18 -34 18 -44 28 -43 48 0 14 -3 80 -6 148 -5 104 -3 123 10 128 12 5 15
25 15 103 0 53 5 139 11 191 6 52 13 147 15 210 7 226 12 296 22 340 5 25 10
107 11 183 1 76 6 147 12 158 5 11 12 70 15 132 3 61 10 116 15 122 5 5 9 22
9 37 0 21 5 28 20 28 11 0 20 -6 20 -14z"/>
</g>
</svg>
